<?xml version="1.0" standalone="no"?>
<!DOCTYPE svg PUBLIC "-//W3C//DTD SVG 20010904//EN"
 "http://www.w3.org/TR/2001/REC-SVG-20010904/DTD/svg10.dtd">
<svg version="1.0" xmlns="http://www.w3.org/2000/svg"
 width="346.000000pt" height="229.000000pt" viewBox="0 0 346.000000 229.000000"
 preserveAspectRatio="xMidYMid meet">

<g transform="translate(0.000000,229.000000) scale(0.100000,-0.100000)"
fill="#000000" stroke="none">
<path d="M2101 2075 c-17 -86 -45 -200 -62 -253 -30 -93 -279 -742 -340 -886
-16 -37 -29 -72 -29 -76 0 -20 105 -121 146 -141 49 -23 63 -18 64 24 0 66
103 399 182 592 72 174 257 585 289 641 16 28 29 56 29 62 0 22 -122 141 -163
160 -88 42 -80 51 -116 -123z"/>
<path d="M1160 2209 c-153 -19 -334 -71 -442 -125 -65 -33 -67 -34 -58 -64 11
-40 59 -126 80 -145 16 -15 23 -13 79 24 61 39 209 106 217 98 7 -7 -44 -170
-86 -278 -66 -166 -243 -582 -308 -726 l-60 -133 28 -37 c40 -55 80 -90 124
-108 21 -9 39 -15 41 -13 2 2 17 56 34 120 47 179 186 547 211 563 5 3 26 -6
47 -21 36 -25 42 -26 133 -21 241 15 461 147 551 332 32 66 34 76 34 175 0 96
-3 110 -28 158 -90 171 -295 240 -597 201z m446 -164 c83 -41 122 -113 111
-207 -17 -140 -167 -255 -396 -303 -87 -18 -241 -30 -241 -19 1 15 174 375
217 449 30 51 38 75 32 87 -8 14 -3 18 33 21 94 10 188 -1 244 -28z"/>
<path d="M2821 2184 c-134 -67 -364 -313 -590 -629 l-83 -116 76 -232 c127
-386 193 -498 293 -497 39 1 112 35 149 71 l32 31 -78 76 c-88 87 -178 218
-255 372 -75 150 -74 140 -18 212 80 106 223 246 331 328 100 75 266 169 365
205 53 20 58 35 31 88 -39 75 -100 127 -150 127 -17 0 -64 -16 -103 -36z"/>
<path d="M1453 708 c-62 -99 -153 -349 -153 -422 0 -22 8 -40 25 -56 l25 -23
0 30 c0 90 76 296 151 407 l47 71 -26 17 c-15 10 -30 18 -34 18 -4 0 -20 -19
-35 -42z"/>
<path d="M1860 573 c-17 -26 -30 -51 -30 -55 0 -4 -13 -8 -30 -8 -20 0 -30 -5
-30 -15 0 -8 9 -15 19 -15 18 0 18 -3 -5 -75 -13 -42 -24 -91 -24 -109 0 -61
62 -90 119 -56 40 25 37 34 -7 18 -25 -10 -34 -10 -44 0 -26 26 38 222 72 222
25 0 50 10 50 21 0 5 -11 9 -25 9 l-26 0 31 45 31 45 -26 10 c-40 15 -43 14
-75 -37z"/>
<path d="M1536 558 c-21 -33 -123 -299 -141 -368 -20 -76 -19 -113 3 -140 18
-22 18 -21 51 98 18 66 45 146 60 179 34 71 142 188 148 160 7 -26 -49 -138
-91 -185 -58 -64 -1 -72 69 -10 66 57 105 176 70 211 -28 28 -61 20 -110 -26
-25 -24 -45 -41 -45 -38 0 3 14 30 30 60 31 56 30 64 -7 75 -16 5 -26 1 -37
-16z"/>
<path d="M623 525 c-37 -37 -39 -46 -18 -141 6 -29 5 -31 -33 -42 -44 -13 -92
-62 -92 -93 0 -23 34 -59 55 -59 9 0 31 7 51 15 36 15 64 61 64 106 0 13 8 23
23 27 22 6 22 6 -3 12 -22 5 -24 10 -22 45 4 47 26 85 48 85 13 0 15 -7 11
-30 -4 -16 -3 -30 2 -30 9 0 31 45 31 64 0 13 -61 76 -74 76 -4 0 -24 -16 -43
-35z m-29 -260 c-21 -33 -53 -50 -66 -37 -14 14 7 49 45 73 26 15 33 16 35 5
2 -8 -4 -27 -14 -41z"/>
<path d="M855 526 c-75 -32 -125 -131 -105 -205 10 -37 58 -91 81 -91 18 0 64
28 88 54 30 32 24 33 -35 1 -36 -19 -50 -22 -60 -14 -17 14 -18 69 -2 123 12
39 77 116 98 116 21 0 22 -32 2 -60 -22 -30 -20 -40 9 -40 38 0 54 84 21 113
-22 20 -56 21 -97 3z"/>
<path d="M1071 496 c-44 -63 -73 -142 -69 -190 2 -32 9 -43 31 -56 28 -15 29
-15 73 35 42 48 44 49 44 23 0 -17 10 -34 26 -47 38 -30 44 -26 38 23 -5 36 0
58 31 131 31 71 35 89 24 96 -32 20 -50 9 -76 -48 -27 -61 -111 -183 -125
-183 -4 0 -8 7 -8 15 0 25 47 140 75 185 21 34 24 44 13 51 -27 17 -48 8 -77
-35z"/>
<path d="M2021 496 c-44 -63 -73 -142 -69 -190 2 -32 9 -43 31 -56 28 -15 29
-15 73 35 42 48 44 49 44 23 0 -17 10 -34 26 -47 38 -30 44 -26 38 23 -5 36 0
58 31 131 31 71 35 89 24 96 -32 20 -50 9 -76 -48 -27 -61 -111 -183 -125
-183 -4 0 -8 7 -8 15 0 25 47 140 75 185 21 34 24 44 13 51 -27 17 -48 8 -77
-35z"/>
<path d="M2315 510 c-23 -44 -75 -208 -75 -236 0 -26 38 -54 44 -32 19 66 44
117 74 150 19 21 39 38 44 38 6 0 19 -11 30 -25 29 -37 45 -18 45 55 1 73 -16
79 -62 21 -16 -21 -40 -46 -52 -55 -23 -17 -23 -17 -11 11 7 15 18 37 25 48
18 27 17 30 -12 43 -34 16 -32 16 -50 -18z"/>
<path d="M2615 524 c-65 -34 -112 -104 -121 -180 -5 -40 -2 -54 15 -76 42 -52
92 -46 164 20 43 41 31 45 -19 7 -49 -37 -88 -45 -98 -19 -13 35 -5 49 38 67
57 24 103 70 118 119 11 38 10 42 -11 59 -28 23 -47 24 -86 3z m52 -76 c-15
-36 -99 -107 -105 -89 -9 27 72 121 104 121 12 0 12 -5 1 -32z"/>
</g>
</svg>
